<svg width="20" height="21" viewBox="0 0 20 21" fill="red" xmlns="http://www.w3.org/2000/svg">
<path d="M19.1668 7.1667H17.5001C17.0399 7.1667 16.6668 7.53978 16.6668 8.00002C16.6668 8.46026 17.0399 8.83335 17.5001 8.83335H18.3334V13H17.4842C17.3726 12.1203 16.6628 11.4273 15.7749 11.3424L15.2012 3.55046C15.1031 1.8392 13.6423 0.499977 11.8851 0.499977H8.11505C6.35777 0.499977 4.89702 1.8392 4.79807 3.56394L4.22514 11.3424C3.33732 11.4273 2.62748 12.1203 2.51587 13H1.66665V8.83335H2.50001C2.96025 8.83335 3.33334 8.46026 3.33334 8.00002C3.33334 7.53978 2.96025 7.1667 2.50001 7.1667H0.833325C0.373088 7.1667 0 7.53978 0 8.00002V13.8334C0 14.2936 0.373088 14.6667 0.833325 14.6667H2.50001V15.5001C2.50001 15.9603 2.8731 16.3334 3.33334 16.3334H4.16666V19.6667C4.16666 20.127 4.53975 20.5001 4.99999 20.5001H7.5C7.96024 20.5001 8.33333 20.127 8.33333 19.6667V16.3334H11.6667V19.6667C11.6667 20.127 12.0398 20.5001 12.5 20.5001H15C15.4602 20.5001 15.8333 20.127 15.8333 19.6667V16.3334H16.6667C17.1269 16.3334 17.5 15.9603 17.5 15.5001V14.6667H19.1667C19.6269 14.6667 20 14.2937 20 13.8334V8.00002C20.0001 7.53978 19.627 7.1667 19.1668 7.1667ZM6.46113 3.67285C6.50973 2.82753 7.23059 2.16663 8.11505 2.16663H11.8851C12.7695 2.16663 13.4904 2.82749 13.5381 3.65937L14.1031 11.3334H5.89699L6.46113 3.67285ZM6.66672 18.8334H5.83339V16.3334H6.66672V18.8334ZM14.1668 18.8334H13.3334V16.3334H14.1668V18.8334V18.8334ZM15.8334 14.6667H15.0001H12.5001H7.50004H5.00003H4.1667V13.2426C4.1667 13.1086 4.27526 13 4.40921 13H5.00003H15.0001H15.5909C15.7249 13 15.8334 13.1086 15.8334 13.2426V14.6667Z" fill="red"/>
<path d="M6 2H14L15 12H5.5L6 2Z" fill="red"/>
<rect x="4" y="12" width="12" height="3" fill="red"/>
<rect x="5" y="16" width="2" height="4" fill="red"/>
<rect x="12" y="15" width="3" height="4" fill="red"/>
</svg>
