<svg width="20" height="20" viewBox="0 0 20 20" fill="none" xmlns="http://www.w3.org/2000/svg">
<path d="M19.1668 6.66668H17.5001C17.0399 6.66668 16.6668 7.03977 16.6668 7.50001C16.6668 7.96024 17.0399 8.33333 17.5001 8.33333H18.3334V12.5H17.4842C17.3726 11.6203 16.6628 10.9273 15.7749 10.8424L15.2012 3.05045C15.1031 1.33919 13.6423 -3.8147e-05 11.8851 -3.8147e-05H8.11505C6.35777 -3.8147e-05 4.89702 1.33919 4.79807 3.06392L4.22514 10.8424C3.33732 10.9273 2.62748 11.6203 2.51587 12.5H1.66665V8.33333H2.50001C2.96025 8.33333 3.33334 7.96024 3.33334 7.50001C3.33334 7.03977 2.96025 6.66668 2.50001 6.66668H0.833325C0.373088 6.66668 0 7.03977 0 7.50001V13.3334C0 13.7936 0.373088 14.1667 0.833325 14.1667H2.50001V15C2.50001 15.4603 2.8731 15.8334 3.33334 15.8334H4.16666V19.1667C4.16666 19.627 4.53975 20 4.99999 20H7.5C7.96024 20 8.33333 19.627 8.33333 19.1667V15.8334H11.6667V19.1667C11.6667 19.627 12.0398 20 12.5 20H15C15.4602 20 15.8333 19.627 15.8333 19.1667V15.8334H16.6667C17.1269 15.8334 17.5 15.4603 17.5 15V14.1667H19.1667C19.6269 14.1667 20 13.7936 20 13.3334V7.50001C20.0001 7.03977 19.627 6.66668 19.1668 6.66668ZM6.46113 3.17283C6.50973 2.32751 7.23059 1.66661 8.11505 1.66661H11.8851C12.7695 1.66661 13.4904 2.32748 13.5381 3.15936L14.1031 10.8333H5.89699L6.46113 3.17283ZM6.66672 18.3334H5.83339V15.8334H6.66672V18.3334ZM14.1668 18.3334H13.3334V15.8334H14.1668V18.3334V18.3334ZM15.8334 14.1667H15.0001H12.5001H7.50004H5.00003H4.1667V12.7425C4.1667 12.6086 4.27526 12.5 4.40921 12.5H5.00003H15.0001H15.5909C15.7249 12.5 15.8334 12.6086 15.8334 12.7425V14.1667Z" fill="black"/>
</svg>
